<?xml version="1.0" encoding="UTF-8" standalone="no"?>
<svg xmlns:rdf="http://www.w3.org/1999/02/22-rdf-syntax-ns#" xmlns="http://www.w3.org/2000/svg" height="100%" width="100%" version="1.1" xmlns:cc="http://creativecommons.org/ns#" xmlns:dc="http://purl.org/dc/elements/1.1/" viewBox="0 0 17 17">
<metadata>
<rdf:RDF>
<cc:Work rdf:about="">
<dc:format>image/svg+xml</dc:format>
<dc:type rdf:resource="http://purl.org/dc/dcmitype/StillImage"/>
<dc:title/>
</cc:Work>
</rdf:RDF>
</metadata>
<path style="baseline-shift:baseline;block-progression:tb;color:#000000;direction:ltr;text-indent:0;text-align:start;enable-background:accumulate;text-transform:none;" fill="#ff9148" d="M6.5,3.391c-2.295,0.844-4,3.029-4,5.609,0,3.302,2.698,6,6,6s6-2.698,6-6c0-2.58-1.705-4.765-4-5.609v2.219c1.161,0.6975,2,1.928,2,3.391,0,2.221-1.779,4-4,4s-4-1.779-4-4c0-1.462,0.8391-2.693,2-3.391z"/>
<g transform="translate(377,-498.4)" display="none">
<path fill-rule="evenodd" d="m-372,504.4,5,3.5-5,3.5z" fill="#ff9148"/>
</g>
<g fill="#ff9148" transform="translate(0,2)" display="none">
<rect style="color:#000000;" height="7" width="2" y="4" x="5" display="inline"/>
<rect style="color:#000000;" height="7" width="2" y="4" x="8" display="inline"/>
</g>
<g fill="#ff9148" transform="translate(0,2)" display="none">
<path d="M10,4,5,7.5,10,11z" fill-rule="evenodd"/>
<rect style="color:#000000;" height="7" width="2" y="4" x="5" display="inline"/>
</g>
<g fill="#ff9148" transform="translate(0,2)" display="none">
<path d="M5,4,10,7.5,5,11z" fill-rule="evenodd"/>
<rect style="color:#000000;" height="7" width="2" y="4" x="8" display="inline"/>
</g>
<g fill="#ff9148" transform="translate(0,2)" display="none">
<rect style="color:#000000;" height="5" width="5" y="5" x="5" display="inline"/>
<path style="color:#000000;" d="M5,3h-2v2h1v-1h1z" display="inline"/>
<path style="color:#000000;" d="M12,5v-2h-2v1h1v1z" display="inline"/>
<path style="color:#000000;" d="m10,12h2v-2h-1v1h-1z" display="inline"/>
<path style="color:#000000;" d="m3,10v2h2v-1h-1v-1z" display="inline"/>
</g>
</svg>
