<?xml version="1.0" encoding="UTF-8" standalone="no"?>
<!-- Created with Inkscape (http://www.inkscape.org/) -->
<svg xmlns:rdf="http://www.w3.org/1999/02/22-rdf-syntax-ns#" xmlns="http://www.w3.org/2000/svg" version="1.1" xmlns:cc="http://creativecommons.org/ns#" xmlns:xlink="http://www.w3.org/1999/xlink" viewBox="0 0 120 120" xmlns:dc="http://purl.org/dc/elements/1.1/">
<metadata>
<rdf:RDF>
<cc:Work rdf:about="">
<dc:format>image/svg+xml</dc:format>
<dc:type rdf:resource="http://purl.org/dc/dcmitype/StillImage"/>
<dc:title/>
</cc:Work>
</rdf:RDF>
</metadata>
<g transform="translate(0,-932.36218)">
<rect style="enable-background:accumulate;color:#000000;" fill-opacity="0.8458" transform="translate(0,932.36218)" height="2" width="2" y="4" x="4" fill="#000"/>
<path style="enable-background:accumulate;color:#000000;" d="M9,4,7,5,9,6z" fill-rule="nonzero" fill-opacity="0.84577113" transform="translate(0,932.36218)" fill="#000"/>
<path style="enable-background:accumulate;color:#000000;" d="m10,4,0,2,2-1z" fill-rule="nonzero" fill-opacity="0.84577113" transform="translate(0,932.36218)" fill="#000"/>
<rect style="enable-background:accumulate;color:#000000;" fill-rule="nonzero" fill-opacity="0.8458" transform="translate(0,932.36218)" height="2" width="3" y="4" x="13" fill="#000"/>
<rect style="enable-background:accumulate;color:#000000;" fill-rule="nonzero" fill-opacity="0.8458" transform="translate(0,932.36218)" height="1" width="82" y="4" x="18" fill="#000"/>
<rect style="enable-background:accumulate;color:#000000;" fill-rule="nonzero" fill-opacity="0.8458" transform="translate(0,932.36218)" height="2" width="3" y="4" x="101" fill="#000"/>
<rect style="enable-background:accumulate;color:#000000;" fill-rule="nonzero" fill-opacity="0.8458" transform="translate(0,932.36218)" height="3" width="1" y="3" x="28" fill="#000"/>
<rect style="enable-background:accumulate;color:#000000;" fill-rule="nonzero" fill-opacity="0.8458" transform="translate(0,932.36218)" height="2" width="2" y="4" x="105" fill="#000"/>
<rect style="enable-background:accumulate;color:#000000;" fill-rule="nonzero" fill-opacity="0.8458" transform="translate(0,932.36218)" height="2" width="2" y="4" x="108" fill="#000"/>
<rect style="enable-background:accumulate;color:#000000;" fill-rule="nonzero" fill-opacity="0.8458" transform="translate(0,932.36218)" height="2" width="1" y="4" x="111" fill="#000"/>
<path style="enable-background:accumulate;color:#000000;" d="m112,5,4-1,0,2z" fill-rule="nonzero" fill-opacity="0.84577113" transform="translate(0,932.36218)" fill="#000"/>
<rect id="rect3843" style="enable-background:accumulate;color:#000000;" fill-rule="nonzero" fill-opacity="0.1493" transform="translate(0,932.36218)" height="1" width="114" y="7" x="3" fill="#000"/>
<rect style="enable-background:accumulate;color:#000000;" fill-rule="nonzero" fill-opacity="0.1393" height="110" width="114" y="939.4" x="3" fill="#000"/>
<use xlink:href="#rect3843" transform="translate(0,6)" y="0" x="0"/>
<use xlink:href="#rect3843" transform="translate(0,12)" y="0" x="0"/>
<use xlink:href="#rect3843" transform="translate(0,18)" y="0" x="0"/>
<use xlink:href="#rect3843" transform="translate(0,24)" y="0" x="0"/>
<use xlink:href="#rect3843" transform="translate(0,30)" y="0" x="0"/>
<use xlink:href="#rect3843" transform="translate(0,36)" y="0" x="0"/>
<use xlink:href="#rect3843" transform="translate(0,42)" y="0" x="0"/>
<use xlink:href="#rect3843" transform="translate(0,48)" y="0" x="0"/>
<use xlink:href="#rect3843" transform="translate(0,54)" y="0" x="0"/>
<use xlink:href="#rect3843" transform="translate(0,60)" y="0" x="0"/>
<use xlink:href="#rect3843" transform="translate(0,66)" y="0" x="0"/>
<use xlink:href="#rect3843" transform="translate(0,72)" y="0" x="0"/>
<use xlink:href="#rect3843" transform="translate(0,78)" y="0" x="0"/>
<use xlink:href="#rect3843" transform="translate(0,84)" y="0" x="0"/>
<use xlink:href="#rect3843" transform="translate(0,90)" y="0" x="0"/>
<use xlink:href="#rect3843" transform="translate(0,96)" y="0" x="0"/>
<use xlink:href="#rect3843" transform="translate(0,102)" y="0" x="0"/>
<use xlink:href="#rect3843" transform="translate(0,108)" y="0" x="0"/>
<path style="baseline-shift:baseline;block-progression:tb;color:#000000;direction:ltr;text-indent:0;text-align:start;enable-background:accumulate;text-transform:none;" fill-opacity="0.56218904" fill="#000" d="m1,933.4,0,1,0,116,0,1,1,0,116,0,1,0,0-1,0-116,0-1-1,0-116,0-1,0zm2,2,114,0,0,114-114,0,0-114z"/>
</g>
</svg>
