<?xml version="1.0" encoding="UTF-8" standalone="no"?>
<!-- Created with Inkscape (http://www.inkscape.org/) -->
<svg xmlns:rdf="http://www.w3.org/1999/02/22-rdf-syntax-ns#" xmlns="http://www.w3.org/2000/svg" version="1.1" xmlns:cc="http://creativecommons.org/ns#" xmlns:xlink="http://www.w3.org/1999/xlink" viewBox="0 0 120 120" xmlns:dc="http://purl.org/dc/elements/1.1/">
<metadata>
<rdf:RDF>
<cc:Work rdf:about="">
<dc:format>image/svg+xml</dc:format>
<dc:type rdf:resource="http://purl.org/dc/dcmitype/StillImage"/>
<dc:title/>
</cc:Work>
</rdf:RDF>
</metadata>
<g transform="translate(0,-932.36218)">
<rect id="rect3843" style="enable-background:accumulate;color:#000000;" fill-rule="nonzero" fill-opacity="0.1493" transform="translate(0,932.36218)" height="1" width="114" y="7" x="3" fill="#000"/>
<use xlink:href="#rect3843" transform="translate(0,6)" height="120" width="120" y="0" x="0"/>
<use xlink:href="#rect3843" transform="translate(0,12)" height="120" width="120" y="0" x="0"/>
<use xlink:href="#rect3843" transform="translate(0,18)" height="120" width="120" y="0" x="0"/>
<use xlink:href="#rect3843" transform="translate(0,24)" height="120" width="120" y="0" x="0"/>
<use xlink:href="#rect3843" transform="translate(0,30)" height="120" width="120" y="0" x="0"/>
<use xlink:href="#rect3843" transform="translate(0,36)" height="120" width="120" y="0" x="0"/>
<use xlink:href="#rect3843" transform="translate(0,42)" height="120" width="120" y="0" x="0"/>
<use xlink:href="#rect3843" transform="translate(0,48)" height="120" width="120" y="0" x="0"/>
<use xlink:href="#rect3843" transform="translate(0,54)" height="120" width="120" y="0" x="0"/>
<use xlink:href="#rect3843" transform="translate(0,60)" height="120" width="120" y="0" x="0"/>
<use xlink:href="#rect3843" transform="translate(0,66)" height="120" width="120" y="0" x="0"/>
<use xlink:href="#rect3843" transform="translate(0,72)" height="120" width="120" y="0" x="0"/>
<use xlink:href="#rect3843" transform="translate(0,78)" height="120" width="120" y="0" x="0"/>
<use xlink:href="#rect3843" transform="translate(0,84)" height="120" width="120" y="0" x="0"/>
<use xlink:href="#rect3843" transform="translate(0,90)" height="120" width="120" y="0" x="0"/>
<use xlink:href="#rect3843" transform="translate(0,96)" height="120" width="120" y="0" x="0"/>
<use xlink:href="#rect3843" transform="translate(0,102)" height="120" width="120" y="0" x="0"/>
<path style="baseline-shift:baseline;block-progression:tb;color:#000000;direction:ltr;text-indent:0;text-align:start;enable-background:accumulate;text-transform:none;" fill-opacity="0.56218902" fill="#000" d="m1,933.4,0,1,0,116,0,1,1,0,116,0,1,0,0-1,0-116,0-1-1,0-116,0-1,0zm2,2,114,0,0,114-114,0,0-114z"/>
<rect style="enable-background:accumulate;color:#000000;" fill-rule="nonzero" fill-opacity="0.1393" height="107" width="114" y="935.4" x="3" fill="#000"/>
</g>
<rect style="enable-background:accumulate;color:#000000;" fill-opacity="0.8458" height="5" width="5" y="111" x="4" fill="#000"/>
<path style="enable-background:accumulate;color:#000000;" d="m15,111-5,2.5,5,2.5z" fill-opacity="0.84577116" fill-rule="nonzero" fill="#000"/>
<path style="enable-background:accumulate;color:#000000;" d="m16,111,0,5,5-2.5z" fill-opacity="0.84577116" fill-rule="nonzero" fill="#000"/>
<rect style="enable-background:accumulate;color:#000000;" fill-rule="nonzero" fill-opacity="0.8458" height="2" width="3" y="113" x="22" fill="#000"/>
<rect style="enable-background:accumulate;color:#000000;" fill-rule="nonzero" fill-opacity="0.8458" height="3" width="59" y="112" x="26" fill="#000"/>
<rect style="enable-background:accumulate;color:#000000;" fill-rule="nonzero" fill-opacity="0.8458" height="5" width="1" y="111" x="29" fill="#000"/>
<rect style="enable-background:accumulate;color:#000000;" fill-rule="nonzero" fill-opacity="0.8458" height="2" width="3" y="112" x="87" fill="#000"/>
<rect style="enable-background:accumulate;color:#000000;" fill-rule="nonzero" fill-opacity="0.8458" height="5" width="5" y="111" x="92" fill="#000"/>
<rect style="enable-background:accumulate;color:#000000;" fill-rule="nonzero" fill-opacity="0.8458" height="5" width="5" y="111" x="98" fill="#000"/>
<rect style="enable-background:accumulate;color:#000000;" fill-rule="nonzero" fill-opacity="0.8458" height="5" width="2" y="111" x="104" fill="#000"/>
<path style="enable-background:accumulate;color:#000000;" d="m106,113.5,10-2.5,0,5z" fill-opacity="0.84577116" fill-rule="nonzero" fill="#000"/>
</svg>
