<?xml version="1.0" encoding="UTF-8" standalone="no"?>
<!-- Created with Inkscape (http://www.inkscape.org/) -->
<svg xmlns:rdf="http://www.w3.org/1999/02/22-rdf-syntax-ns#" xmlns="http://www.w3.org/2000/svg" version="1.1" xmlns:cc="http://creativecommons.org/ns#" xmlns:dc="http://purl.org/dc/elements/1.1/" viewBox="0 0 120 120">
<metadata>
<rdf:RDF>
<cc:Work rdf:about="">
<dc:format>image/svg+xml</dc:format>
<dc:type rdf:resource="http://purl.org/dc/dcmitype/StillImage"/>
<dc:title/>
</cc:Work>
</rdf:RDF>
</metadata>
<g fill="#000" transform="translate(0,-932.36218)">
<rect style="enable-background:accumulate;color:#000000;" fill-opacity="0.8458" height="2" width="2" y="972.4" x="4"/>
<path style="enable-background:accumulate;color:#000000;" d="m9,972.4-2,1,2,1z" fill-opacity="0.84577116" fill-rule="nonzero"/>
<path style="enable-background:accumulate;color:#000000;" d="m10,972.4,0,2,2-1z" fill-opacity="0.84577116" fill-rule="nonzero"/>
<rect style="enable-background:accumulate;color:#000000;" fill-rule="nonzero" fill-opacity="0.8458" height="2" width="3" y="972.4" x="13"/>
<rect style="enable-background:accumulate;color:#000000;" fill-rule="nonzero" fill-opacity="0.8458" height="1" width="82" y="972.4" x="18"/>
<rect style="enable-background:accumulate;color:#000000;" fill-rule="nonzero" fill-opacity="0.8458" height="2" width="3" y="972.4" x="101"/>
<rect style="enable-background:accumulate;color:#000000;" fill-rule="nonzero" fill-opacity="0.8458" height="3" width="1" y="971.4" x="28"/>
<rect style="enable-background:accumulate;color:#000000;" fill-rule="nonzero" fill-opacity="0.8458" height="2" width="2" y="972.4" x="105"/>
<rect style="enable-background:accumulate;color:#000000;" fill-rule="nonzero" fill-opacity="0.8458" height="2" width="2" y="972.4" x="108"/>
<rect style="enable-background:accumulate;color:#000000;" fill-rule="nonzero" fill-opacity="0.8458" height="2" width="1" y="972.4" x="111"/>
<path style="enable-background:accumulate;color:#000000;" d="m112,973.4,4-1,0,2z" fill-opacity="0.84577116" fill-rule="nonzero"/>
<rect style="enable-background:accumulate;color:#000000;" fill-rule="nonzero" fill-opacity="0.1493" height="1" width="114" y="975.4" x="3"/>
<rect style="enable-background:accumulate;color:#000000;" fill-rule="nonzero" fill-opacity="0.1393" height="38" width="114" y="975.4" x="3"/>
<path style="baseline-shift:baseline;block-progression:tb;color:#000000;direction:ltr;text-indent:0;text-align:start;enable-background:accumulate;text-transform:none;" d="m1,969.4,0,1,0,44,0,1,1,0,116,0,1,0,0-1,0-44,0-1-1,0-116,0zm2,2,114,0,0,42-114,0z" fill-opacity="0.56218902"/>
<rect style="enable-background:accumulate;color:#000000;" fill-opacity="0.8458" height="26" width="26" y="980.4" x="5"/>
<rect style="enable-background:accumulate;color:#000000;" fill-rule="nonzero" fill-opacity="0.8458" height="2" width="72.5" y="998.4" x="38"/>
<rect style="enable-background:accumulate;color:#000000;" fill-rule="nonzero" fill-opacity="0.8458" height="2" width="72.5" y="991.4" x="38"/>
<rect style="enable-background:accumulate;color:#000000;" fill-rule="nonzero" fill-opacity="0.8458" height="2" width="72.5" y="984.4" x="38"/>
</g>
</svg>
